<svg width="22" height="22" viewBox="0 0 22 22" fill="none" xmlns="http://www.w3.org/2000/svg">
<path fill-rule="evenodd" clip-rule="evenodd" d="M17.4167 1.36048e-05L21.0833 0C21.3264 -8.7419e-07 21.5595 0.0965754 21.7315 0.268483C21.9034 0.44039 22 0.673548 22 0.916664V4.58334C22 4.82646 21.9034 5.05962 21.7315 5.23153L10.9214 16.0417L12.5648 17.6852C12.9228 18.0431 12.9228 18.6236 12.5648 18.9815C12.2069 19.3396 11.6265 19.3396 11.2685 18.9815L8.97682 16.6898L8.67511 16.3882L5.49991 19.2459C5.50088 19.9499 5.233 20.6562 4.69454 21.1946C3.6206 22.2686 1.8794 22.2686 0.805456 21.1946C-0.268486 20.1207 -0.268486 18.3794 0.805456 17.3055C1.3439 16.767 2.0501 16.4992 2.75413 16.5002L5.61185 13.3249L5.31013 13.0232L3.01848 10.7315C2.66051 10.3736 2.66051 9.79312 3.01848 9.43516C3.37647 9.07719 3.95687 9.07719 4.31485 9.43516L5.95831 11.0787L16.7685 0.268498C16.9404 0.096591 17.1736 1.44789e-05 17.4167 1.36048e-05ZM7.25467 12.375L7.52318 12.6435L9.35651 14.4768L9.625 14.7453L20.1667 4.20365V1.83333L17.7964 1.83334L7.25467 12.375ZM6.91001 14.623L4.58732 17.2038C4.62376 17.2365 4.65952 17.2705 4.69454 17.3055C4.72956 17.3405 4.76344 17.3762 4.79619 17.4127L7.37696 15.09L6.91001 14.623ZM2.93953 18.353C2.64408 18.2912 2.32842 18.3753 2.10182 18.6019C1.74384 18.9599 1.74384 19.5402 2.10182 19.8983C2.4598 20.2562 3.0402 20.2562 3.39818 19.8983C3.62478 19.6717 3.70893 19.356 3.64707 19.0605C3.61196 18.8928 3.52985 18.7335 3.39818 18.6019C3.2665 18.4702 3.10722 18.3881 2.93953 18.353Z" fill="#630606"/>
</svg>
