<svg width="10" height="12" viewBox="0 0 10 12" fill="none" xmlns="http://www.w3.org/2000/svg">
<path d="M10 10C10 11.1046 9.10457 12 8 12L2 12C0.89543 12 0 11.1046 0 10L0 0L10 0L10 10Z" fill="#E08D8D"/>
<path d="M5.5 2C5.5 1.72386 5.27614 1.5 5 1.5C4.72386 1.5 4.5 1.72386 4.5 2H5.5ZM4.64645 10.3536C4.84171 10.5488 5.15829 10.5488 5.35355 10.3536L8.53553 7.17157C8.7308 6.97631 8.7308 6.65973 8.53553 6.46447C8.34027 6.2692 8.02369 6.2692 7.82843 6.46447L5 9.29289L2.17157 6.46447C1.97631 6.2692 1.65973 6.2692 1.46447 6.46447C1.2692 6.65973 1.2692 6.97631 1.46447 7.17157L4.64645 10.3536ZM4.5 2L4.5 10H5.5V2H4.5Z" fill="#CE4B4B"/>
</svg>
