<svg width="10" height="12" viewBox="0 0 10 12" fill="none" xmlns="http://www.w3.org/2000/svg">
<path d="M0 2C0 0.895431 0.895431 0 2 0H8C9.10457 0 10 0.895431 10 2V12H0V2Z" fill="#8EE08D"/>
<path d="M4.5 10C4.5 10.2761 4.72386 10.5 5 10.5C5.27614 10.5 5.5 10.2761 5.5 10H4.5ZM5.35355 1.64645C5.15829 1.45118 4.84171 1.45118 4.64645 1.64645L1.46447 4.82843C1.2692 5.02369 1.2692 5.34027 1.46447 5.53553C1.65973 5.7308 1.97631 5.7308 2.17157 5.53553L5 2.70711L7.82843 5.53553C8.02369 5.7308 8.34027 5.7308 8.53553 5.53553C8.7308 5.34027 8.7308 5.02369 8.53553 4.82843L5.35355 1.64645ZM5.5 10V2H4.5L4.5 10H5.5Z" fill="#3CCA3B"/>
</svg>
