<svg width="14" height="19" viewBox="0 0 14 19" fill="none" xmlns="http://www.w3.org/2000/svg">
<path d="M9.57143 18V13.6072C9.57143 13.0776 9.33469 12.5767 8.92806 12.2457L7.42857 11.0256M7.42857 11.0256L8.71429 5.35897M7.42857 11.0256L6.14286 10.1538M8.71429 5.35897L7 4.92308M8.71429 5.35897L10.4651 8.20809C10.7153 8.6153 11.1196 8.89951 11.5825 8.99375L13 9.28205M6.14286 10.1538L7 4.92308M6.14286 10.1538L5.62867 13.0302C5.44577 14.0534 4.4287 14.6872 3.44943 14.3884L1 13.641M7 4.92308L4.51906 6.18475C3.93829 6.4801 3.57143 7.08384 3.57143 7.74429V9.28205M10 1.87179C10 2.35327 9.61626 2.74359 9.14286 2.74359C8.66946 2.74359 8.28571 2.35327 8.28571 1.87179C8.28571 1.39032 8.66946 1 9.14286 1C9.61626 1 10 1.39032 10 1.87179Z" stroke="#0065A8" stroke-width="2" stroke-linecap="round" stroke-linejoin="round"/>
</svg>
