<svg width="24" height="24" viewBox="0 0 24 24" fill="none" xmlns="http://www.w3.org/2000/svg">
<rect width="24" height="24" rx="5" fill="#35A5C4"/>
<path d="M14.5714 21V16.6072C14.5714 16.0776 14.3347 15.5767 13.9281 15.2457L12.4286 14.0256M12.4286 14.0256L13.7143 8.35897M12.4286 14.0256L11.1429 13.1538M13.7143 8.35897L12 7.92308M13.7143 8.35897L15.4651 11.2081C15.7153 11.6153 16.1196 11.8995 16.5825 11.9937L18 12.2821M11.1429 13.1538L12 7.92308M11.1429 13.1538L10.6287 16.0302C10.4458 17.0534 9.4287 17.6872 8.44943 17.3884L6 16.641M12 7.92308L9.51906 9.18475C8.93829 9.4801 8.57143 10.0838 8.57143 10.7443V12.2821M15 4.87179C15 5.35327 14.6163 5.74359 14.1429 5.74359C13.6695 5.74359 13.2857 5.35327 13.2857 4.87179C13.2857 4.39032 13.6695 4 14.1429 4C14.6163 4 15 4.39032 15 4.87179Z" stroke="#0065A8" stroke-width="2" stroke-linecap="round" stroke-linejoin="round"/>
</svg>
