<svg width="24" height="24" viewBox="0 0 24 24" fill="none" xmlns="http://www.w3.org/2000/svg">
<rect width="24" height="24" rx="5" fill="#35A5C4"/>
<path d="M11.9398 3.37819C11.5259 2.48616 11.319 2.04014 10.9538 2.00246C10.5888 1.96478 10.3072 2.36039 9.74412 3.1516L9.59839 3.3563C9.43838 3.58114 9.35837 3.69356 9.24316 3.76129C9.12795 3.82903 8.99058 3.84441 8.71584 3.87516L8.46572 3.90317C7.49889 4.01142 7.01549 4.06554 6.87175 4.4024C6.728 4.73927 7.01913 5.13578 7.60137 5.92879L7.75201 6.13395C7.91746 6.35931 8.00019 6.47198 8.03021 6.60391C8.06022 6.73584 8.03412 6.87209 7.98192 7.14459L7.93439 7.39268C7.75069 8.35161 7.65885 8.83108 7.93515 9.07695C8.21146 9.32282 8.67294 9.17227 9.5959 8.87116L9.83462 8.79326C10.0969 8.7077 10.2281 8.66492 10.3618 8.67873C10.4956 8.69252 10.6168 8.76135 10.8593 8.899L11.0801 9.02432C11.9334 9.50873 12.36 9.75093 12.6745 9.56603C12.989 9.38112 12.9831 8.89157 12.9713 7.91246L12.9682 7.65915C12.9648 7.38092 12.9631 7.2418 13.0158 7.1184C13.0685 6.99501 13.1694 6.90129 13.3715 6.71387L13.5555 6.54324C14.2666 5.88368 14.6221 5.5539 14.5401 5.19376C14.4582 4.83361 13.9931 4.6816 13.0628 4.37758L12.8222 4.29893C12.5578 4.21254 12.4257 4.16934 12.3244 4.07926C12.2232 3.9892 12.1644 3.86246 12.0468 3.60897L11.9398 3.37819Z" stroke="#0065A8" stroke-width="2"/>
<path d="M10.4539 21.1726C10.1343 19.0953 9.6869 14.2698 10.4539 11.5854" stroke="#0065A8" stroke-width="2" stroke-linecap="round"/>
<path d="M13.8096 21.1726C13.8096 20.0938 13.9734 18.7602 14.4117 17.3377M21 9.18854C18.8917 10.4184 17.3629 11.9273 16.272 13.5028" stroke="#0065A8" stroke-width="2" stroke-linecap="round"/>
<path d="M4.70183 12.8006C4.70183 12.8006 5.32463 13.5176 5.87395 13.6647C6.42327 13.812 7.32111 13.5024 7.32111 13.5024C7.32111 13.5024 6.60415 14.1252 6.45696 14.6745C6.30977 15.2239 6.61928 16.1217 6.61928 16.1217C6.61928 16.1217 5.99647 15.4048 5.44715 15.2575C4.89784 15.1104 4 15.4199 4 15.4199C4 15.4199 4.71695 14.7971 4.86414 14.2477C5.01134 13.6985 4.70183 12.8006 4.70183 12.8006Z" stroke="#0065A8" stroke-width="2" stroke-linejoin="round"/>
</svg>
