<svg width="19" height="22" viewBox="0 0 19 22" fill="none" xmlns="http://www.w3.org/2000/svg">
<path d="M8.93978 2.37819C8.5259 1.48616 8.31901 1.04014 7.95383 1.00246C7.58875 0.964783 7.30717 1.36039 6.74412 2.1516L6.59839 2.3563C6.43838 2.58114 6.35837 2.69356 6.24316 2.76129C6.12795 2.82903 5.99058 2.84441 5.71584 2.87516L5.46572 2.90317C4.49889 3.01142 4.01549 3.06554 3.87175 3.4024C3.728 3.73927 4.01913 4.13578 4.60137 4.92879L4.75201 5.13395C4.91746 5.35931 5.00019 5.47198 5.03021 5.60391C5.06022 5.73584 5.03412 5.87209 4.98192 6.14459L4.93439 6.39268C4.75069 7.35161 4.65885 7.83108 4.93515 8.07695C5.21146 8.32282 5.67294 8.17227 6.5959 7.87116L6.83462 7.79326C7.09693 7.7077 7.22808 7.66492 7.36182 7.67873C7.49556 7.69252 7.61684 7.76135 7.8593 7.899L8.0801 8.02432C8.93336 8.50873 9.35999 8.75093 9.67445 8.56603C9.98901 8.38112 9.98306 7.89157 9.97127 6.91246L9.9682 6.65915C9.96485 6.38092 9.96312 6.2418 10.0158 6.1184C10.0685 5.99501 10.1694 5.90129 10.3715 5.71387L10.5555 5.54324C11.2666 4.88368 11.6221 4.5539 11.5401 4.19376C11.4582 3.83361 10.9931 3.6816 10.0628 3.37758L9.82219 3.29893C9.55777 3.21254 9.42566 3.16934 9.32442 3.07926C9.22318 2.9892 9.16441 2.86246 9.04677 2.60897L8.93978 2.37819Z" stroke="#0065A8" stroke-width="2"/>
<path d="M7.45387 20.1726C7.13433 18.0953 6.6869 13.2698 7.45387 10.5854" stroke="#0065A8" stroke-width="2" stroke-linecap="round"/>
<path d="M10.8096 20.1726C10.8096 19.0938 10.9734 17.7602 11.4117 16.3377M18 8.18854C15.8917 9.41839 14.3629 10.9273 13.272 12.5028" stroke="#0065A8" stroke-width="2" stroke-linecap="round"/>
<path d="M1.70183 11.8006C1.70183 11.8006 2.32463 12.5176 2.87395 12.6647C3.42327 12.812 4.32111 12.5024 4.32111 12.5024C4.32111 12.5024 3.60415 13.1252 3.45696 13.6745C3.30977 14.2239 3.61928 15.1217 3.61928 15.1217C3.61928 15.1217 2.99647 14.4048 2.44715 14.2575C1.89784 14.1104 1 14.4199 1 14.4199C1 14.4199 1.71695 13.7971 1.86414 13.2477C2.01134 12.6985 1.70183 11.8006 1.70183 11.8006Z" stroke="#0065A8" stroke-width="2" stroke-linejoin="round"/>
</svg>
