<svg width="24" height="24" viewBox="0 0 24 24" fill="none" xmlns="http://www.w3.org/2000/svg">
<rect width="24" height="24" rx="5" fill="#35A5C4"/>
<path d="M13.1605 6.41072C13.2942 6.89342 13.316 7.47786 12.9618 7.832L11.8103 8.98352C11.7476 9.04623 11.7681 9.15246 11.8496 9.1874C13.1811 9.75802 14.242 10.8189 14.8126 12.1504C14.8475 12.2319 14.9537 12.2523 15.0164 12.1897L16.168 11.0382C16.5221 10.684 17.1066 10.7058 17.5892 10.8394C18.5011 11.0917 19.6671 10.7452 20.3359 10.0763C21.2213 9.19094 21.2213 7.75551 20.3359 6.87015C19.4506 5.98481 18.0151 5.98481 17.1298 6.87015C18.0151 5.98481 18.0151 4.54937 17.1298 3.66401C16.2445 2.77866 14.8091 2.77866 13.9236 3.66401M10.0763 20.3359C9.19094 21.2213 7.75551 21.2213 6.87015 20.3359C5.9848 19.4506 5.98481 18.0151 6.87015 17.1298C5.98481 18.0151 4.54937 18.0151 3.66401 17.1298C2.77866 16.2445 2.77866 14.8091 3.66401 13.9236C4.33291 13.2548 5.49881 12.9083 6.41072 13.1605C6.89342 13.2942 7.47786 13.316 7.832 12.9618L8.98352 11.8103C9.04623 11.7476 9.15246 11.7681 9.1874 11.8496C9.75802 13.1811 10.8189 14.242 12.1504 14.8126C12.2319 14.8475 12.2523 14.9537 12.1897 15.0164L11.0382 16.168C10.684 16.5221 10.7058 17.1066 10.8394 17.5892" stroke="#0065A8" stroke-width="2" stroke-linecap="round" stroke-linejoin="round"/>
<path d="M17.0914 17.091L18.3642 18.3639" stroke="#0065A8" stroke-width="2" stroke-linecap="round"/>
<path d="M6.90893 6.90893L5.63614 5.63614" stroke="#0065A8" stroke-width="2" stroke-linecap="round"/>
<path d="M14.7 18.3V19.2" stroke="#0065A8" stroke-width="2" stroke-linecap="round"/>
<path d="M5.69999 9.29999H4.79999" stroke="#0065A8" stroke-width="2" stroke-linecap="round"/>
<path d="M18.3 14.7H19.2" stroke="#0065A8" stroke-width="2" stroke-linecap="round"/>
<path d="M9.29999 5.69999V4.8" stroke="#0065A8" stroke-width="2" stroke-linecap="round"/>
</svg>
