<svg width="20" height="20" viewBox="0 0 20 20" fill="none" xmlns="http://www.w3.org/2000/svg">
<path d="M11.1605 4.41072C11.2942 4.89342 11.316 5.47786 10.9618 5.832L9.81026 6.98352C9.74762 7.04623 9.76805 7.15246 9.84959 7.1874C11.1811 7.75802 12.242 8.81892 12.8126 10.1504C12.8475 10.2319 12.9537 10.2523 13.0164 10.1897L14.168 9.03816C14.5221 8.68401 15.1066 8.70579 15.5892 8.83944C16.5011 9.09171 17.6671 8.74521 18.3359 8.0763C19.2213 7.19094 19.2213 5.75551 18.3359 4.87015C17.4506 3.98481 16.0151 3.98481 15.1298 4.87015C16.0151 3.98481 16.0151 2.54937 15.1298 1.66401C14.2445 0.778663 12.8091 0.778663 11.9236 1.66401M8.0763 18.3359C7.19094 19.2213 5.75551 19.2213 4.87015 18.3359C3.9848 17.4506 3.98481 16.0151 4.87015 15.1298C3.98481 16.0151 2.54937 16.0151 1.66401 15.1298C0.778663 14.2445 0.778663 12.8091 1.66401 11.9236C2.33291 11.2548 3.49881 10.9083 4.41072 11.1605C4.89342 11.2942 5.47786 11.316 5.832 10.9618L6.98352 9.81026C7.04623 9.74762 7.15246 9.76805 7.1874 9.84959C7.75802 11.1811 8.81892 12.242 10.1504 12.8126C10.2319 12.8475 10.2523 12.9537 10.1897 13.0164L9.03816 14.168C8.68401 14.5221 8.70579 15.1066 8.83944 15.5892" stroke="#0065A8" stroke-width="2" stroke-linecap="round" stroke-linejoin="round"/>
<path d="M15.0914 15.091L16.3642 16.3639" stroke="#0065A8" stroke-width="2" stroke-linecap="round"/>
<path d="M4.90893 4.90893L3.63614 3.63614" stroke="#0065A8" stroke-width="2" stroke-linecap="round"/>
<path d="M12.7 16.3V17.2" stroke="#0065A8" stroke-width="2" stroke-linecap="round"/>
<path d="M3.69999 7.29999H2.79999" stroke="#0065A8" stroke-width="2" stroke-linecap="round"/>
<path d="M16.3 12.7H17.2" stroke="#0065A8" stroke-width="2" stroke-linecap="round"/>
<path d="M7.29999 3.69999V2.8" stroke="#0065A8" stroke-width="2" stroke-linecap="round"/>
</svg>
