<svg width="19" height="19" viewBox="0 0 19 19" fill="none" xmlns="http://www.w3.org/2000/svg">
<path fill-rule="evenodd" clip-rule="evenodd" d="M16.05 18.0179C16.05 18.4913 15.6471 18.875 15.15 18.875H11.55H7.95H4.35C3.85294 18.875 3.45 18.4913 3.45 18.0179V16.0893C3.45 15.2609 2.74485 14.5893 1.875 14.5893C1.25368 14.5893 0.75 14.1096 0.75 13.5179V9.44643C0.75 4.71256 4.77943 0.875 9.75 0.875C14.7205 0.875 18.75 4.71256 18.75 9.44643V13.5179C18.75 14.1096 18.2464 14.5893 17.625 14.5893C16.7551 14.5893 16.05 15.2609 16.05 16.0893V18.0179ZM14.25 17.1607V16.0893C14.25 14.5343 15.4095 13.2371 16.95 12.9393V9.44643C16.95 5.65933 13.7265 2.58929 9.75 2.58929C5.77355 2.58929 2.55 5.65933 2.55 9.44643V12.9393C4.09051 13.2371 5.25 14.5343 5.25 16.0893V17.1607H7.05V15.4464C7.05 14.973 7.45294 14.5893 7.95 14.5893C8.44707 14.5893 8.85 14.973 8.85 15.4464V17.1607H10.65V15.4464C10.65 14.973 11.0529 14.5893 11.55 14.5893C12.0471 14.5893 12.45 14.973 12.45 15.4464V17.1607H14.25ZM8.85 10.7321C8.85 11.9156 6.71905 12.875 5.47723 12.875C4.33622 12.875 4.34285 12.065 4.35145 11.0155C4.3522 10.9229 4.35298 10.8282 4.35298 10.7321C4.35298 9.54869 5.35967 8.58929 6.60149 8.58929C7.84331 8.58929 8.85 9.54869 8.85 10.7321ZM15.1486 11.0155C15.1477 10.9228 15.147 10.8282 15.147 10.7321C15.147 9.54869 14.1403 8.58929 12.8985 8.58929C11.6566 8.58929 10.65 9.54869 10.65 10.7321C10.65 11.9156 12.7809 12.875 14.0227 12.875C15.1638 12.875 15.1571 12.065 15.1486 11.0155Z" fill="#0065A8"/>
</svg>
