<svg width="24" height="24" viewBox="0 0 24 24" fill="none" xmlns="http://www.w3.org/2000/svg">
<rect width="24" height="24" rx="5" fill="#35A5C4"/>
<path fill-rule="evenodd" clip-rule="evenodd" d="M18.05 20.0179C18.05 20.4913 17.6471 20.875 17.15 20.875H13.55H9.95H6.35C5.85294 20.875 5.45 20.4913 5.45 20.0179V18.0893C5.45 17.2609 4.74485 16.5893 3.875 16.5893C3.25368 16.5893 2.75 16.1096 2.75 15.5179V11.4464C2.75 6.71256 6.77943 2.875 11.75 2.875C16.7205 2.875 20.75 6.71256 20.75 11.4464V15.5179C20.75 16.1096 20.2464 16.5893 19.625 16.5893C18.7551 16.5893 18.05 17.2609 18.05 18.0893V20.0179ZM16.25 19.1607V18.0893C16.25 16.5343 17.4095 15.2371 18.95 14.9393V11.4464C18.95 7.65933 15.7265 4.58929 11.75 4.58929C7.77355 4.58929 4.55 7.65933 4.55 11.4464V14.9393C6.09051 15.2371 7.25 16.5343 7.25 18.0893V19.1607H9.05V17.4464C9.05 16.973 9.45294 16.5893 9.95 16.5893C10.4471 16.5893 10.85 16.973 10.85 17.4464V19.1607H12.65V17.4464C12.65 16.973 13.0529 16.5893 13.55 16.5893C14.0471 16.5893 14.45 16.973 14.45 17.4464V19.1607H16.25ZM10.85 12.7321C10.85 13.9156 8.71905 14.875 7.47723 14.875C6.33622 14.875 6.34285 14.065 6.35145 13.0155C6.3522 12.9229 6.35298 12.8282 6.35298 12.7321C6.35298 11.5487 7.35967 10.5893 8.60149 10.5893C9.84331 10.5893 10.85 11.5487 10.85 12.7321ZM17.1486 13.0155C17.1477 12.9228 17.147 12.8282 17.147 12.7321C17.147 11.5487 16.1403 10.5893 14.8985 10.5893C13.6566 10.5893 12.65 11.5487 12.65 12.7321C12.65 13.9156 14.7809 14.875 16.0227 14.875C17.1638 14.875 17.1571 14.065 17.1486 13.0155Z" fill="#0065A8"/>
</svg>
