<svg width="24" height="24" viewBox="0 0 24 24" fill="none" xmlns="http://www.w3.org/2000/svg">
<rect width="24" height="24" rx="5" fill="#35A5C4"/>
<path d="M11.8396 16.9322C9.10552 16.9074 6.88548 14.6989 6.86062 11.9789C6.84879 10.6858 7.385 9.43696 8.28269 8.5127C9.2205 7.54722 10.51 7.03762 11.8396 7.02559C13.1107 7.01408 13.1118 5.05222 11.8396 5.06374C8.03021 5.09823 4.92325 8.18907 4.88858 11.9789C4.85391 15.769 8.0824 18.86 11.8396 18.894C13.1118 18.9055 13.1107 16.9437 11.8396 16.9322Z" fill="#0065A8"/>
<path d="M12.165 7.02559C14.8992 7.05034 17.1192 9.25886 17.1441 11.9789C17.156 13.272 16.6197 14.5208 15.722 15.445C14.7842 16.4106 13.4947 16.9201 12.165 16.9322C10.894 16.9437 10.8929 18.9055 12.165 18.894C15.9745 18.8595 19.0815 15.7687 19.1161 11.9789C19.1508 8.1887 15.9222 5.09779 12.165 5.06374C10.8929 5.05222 10.894 7.0141 12.165 7.02559Z" fill="#0065A8"/>
<path d="M10.1882 11.9445C10.1875 10.9263 10.9533 10.1091 11.9604 10.0698C12.9833 10.0299 13.8065 10.8605 13.8448 11.8328C13.8659 12.3669 14.2774 12.8137 14.8308 12.8137C15.3524 12.8137 15.838 12.3674 15.8169 11.8328C15.7349 9.75586 14.0659 8.10659 11.9604 8.10799C9.87091 8.10938 8.2148 9.91023 8.21622 11.9445C8.21711 13.2096 10.1891 13.2097 10.1882 11.9445Z" fill="#0065A8"/>
<path d="M13.8173 12.0417C13.7979 13.0412 12.993 13.8418 11.9884 13.8611C10.9833 13.8804 10.1784 13.0122 10.1596 12.0417C10.1351 10.7782 8.16305 10.7759 8.18757 12.0417C8.22799 14.1278 9.89157 15.7827 11.9884 15.8229C14.0852 15.8632 15.7501 14.0671 15.7893 12.0417C15.8139 10.7759 13.8418 10.7782 13.8173 12.0417Z" fill="#0065A8"/>
<path d="M21 11.9789C21 12.383 20.6594 12.7107 20.2391 12.7107H17.0263C16.606 12.7107 16.2653 12.3831 16.2653 11.9789C16.2653 11.5747 16.606 11.2471 17.0263 11.2471H20.2391C20.6594 11.2471 21 11.5747 21 11.9789ZM7.73471 12.0112C7.73471 12.4153 7.39404 12.743 6.97371 12.743H3.7609C3.34067 12.743 3 12.4154 3 12.0112C3 11.607 3.34067 11.2794 3.7609 11.2794H6.97371C7.39404 11.2794 7.73471 11.607 7.73471 12.0112ZM11.9814 7.71016C11.5752 7.71016 11.2458 7.37133 11.2458 6.95316V3.75695C11.2458 3.33891 11.5752 3 11.9814 3C12.3877 3 12.717 3.33891 12.717 3.75695V6.95316C12.717 7.37131 12.3877 7.7102 11.9814 7.71016ZM11.9814 21C11.5752 21 11.2458 20.6611 11.2458 20.243V17.0468C11.2458 16.6287 11.5752 16.2898 11.9814 16.2898C12.3877 16.2898 12.717 16.6287 12.717 17.0468V20.243C12.717 20.6611 12.3877 21 11.9814 21Z" fill="#0065A8"/>
</svg>
