<svg width="18" height="18" viewBox="0 0 18 18" fill="none" xmlns="http://www.w3.org/2000/svg">
<path d="M8.83965 13.9322C6.10552 13.9074 3.88548 11.6989 3.86062 8.97888C3.84879 7.68582 4.385 6.43695 5.28269 5.5127C6.2205 4.54722 7.51 4.03762 8.83965 4.02559C10.1107 4.01408 10.1118 2.05222 8.83965 2.06374C5.03021 2.09823 1.92325 5.18907 1.88858 8.97888C1.85391 12.769 5.0824 15.86 8.83965 15.894C10.1118 15.9055 10.1107 13.9437 8.83965 13.9322Z" fill="#0065A8"/>
<path d="M9.16502 4.02559C11.8992 4.05034 14.1192 6.25886 14.1441 8.97888C14.156 10.272 13.6197 11.5208 12.722 12.445C11.7842 13.4106 10.4947 13.9201 9.16502 13.9322C7.89399 13.9437 7.89288 15.9055 9.16502 15.894C12.9745 15.8595 16.0815 12.7687 16.1161 8.97888C16.1508 5.1887 12.9222 2.09779 9.16502 2.06374C7.89288 2.05222 7.89399 4.0141 9.16502 4.02559Z" fill="#0065A8"/>
<path d="M7.18823 8.94453C7.1875 7.92629 7.95328 7.10914 8.96037 7.06982C9.98334 7.0299 10.8065 7.86046 10.8448 8.83279C10.8659 9.36695 11.2774 9.81372 11.8308 9.81372C12.3524 9.81372 12.838 9.36739 12.8169 8.83279C12.7349 6.75586 11.0659 5.10659 8.96037 5.10799C6.87091 5.10938 5.2148 6.91023 5.21622 8.94453C5.21711 10.2096 7.18913 10.2097 7.18823 8.94453Z" fill="#0065A8"/>
<path d="M10.8173 9.04171C10.7979 10.0412 9.99304 10.8418 8.98842 10.8611C7.98331 10.8804 7.1784 10.0122 7.15961 9.04171C7.13511 7.77824 5.16305 7.77588 5.18757 9.04171C5.22799 11.1278 6.89157 12.7827 8.98842 12.8229C11.0852 12.8632 12.7501 11.0671 12.7893 9.04171C12.8139 7.77586 10.8418 7.77824 10.8173 9.04171Z" fill="#0065A8"/>
<path d="M18 8.97887C18 9.38304 17.6594 9.71069 17.2391 9.71069H14.0263C13.606 9.71069 13.2653 9.38306 13.2653 8.97887C13.2653 8.57474 13.606 8.24712 14.0263 8.24712H17.2391C17.6594 8.24712 18 8.57474 18 8.97887ZM4.73471 9.01121C4.73471 9.41534 4.39404 9.74296 3.97371 9.74296H0.760895C0.340668 9.74296 0 9.41536 0 9.01121C0 8.60704 0.340668 8.27939 0.760895 8.27939H3.97371C4.39404 8.27939 4.73471 8.60704 4.73471 9.01121ZM8.98136 4.71016C8.57518 4.71016 8.24583 4.37133 8.24583 3.95316V0.756947C8.24583 0.338908 8.57518 0 8.98136 0C9.38766 0 9.717 0.338908 9.717 0.756947V3.95316C9.717 4.37131 9.38766 4.7102 8.98136 4.71016ZM8.98136 18C8.57518 18 8.24583 17.6611 8.24583 17.243V14.0468C8.24583 13.6287 8.57518 13.2898 8.98136 13.2898C9.38766 13.2898 9.717 13.6287 9.717 14.0468V17.243C9.717 17.6611 9.38766 18 8.98136 18Z" fill="#0065A8"/>
</svg>
