<svg width="16" height="21" viewBox="0 0 16 21" fill="none" xmlns="http://www.w3.org/2000/svg">
<path d="M6.25 4.25H4.33333C3.78105 4.25 3.33333 3.80228 3.33333 3.25V2.5C3.33333 1.94772 3.78105 1.5 4.33333 1.5H6.25H8.58333H11.6667C12.219 1.5 12.6667 1.94772 12.6667 2.5V3.25C12.6667 3.80228 12.219 4.25 11.6667 4.25H9.75M6.25 4.25V5.5C6.25 6.05228 5.80228 6.5 5.25 6.5H5C2.79086 6.5 1 8.29086 1 10.5V18C1 19.1046 1.89543 20 3 20H13C14.1046 20 15 19.1046 15 18V10.5C15 8.29086 13.2091 6.5 11 6.5H10.75C10.1977 6.5 9.75 6.05228 9.75 5.5V4.25M6.25 4.25H9.75M4.5 9.875L11.5 16.625M11.5 9.875L4.5 16.625" stroke="#0065A8" stroke-width="2"/>
</svg>
