<svg width="24" height="24" viewBox="0 0 24 24" fill="none" xmlns="http://www.w3.org/2000/svg">
<rect width="24" height="24" rx="5" fill="#35A5C4"/>
<path d="M10.25 5.25H8.33333C7.78105 5.25 7.33333 4.80228 7.33333 4.25V3.5C7.33333 2.94772 7.78105 2.5 8.33333 2.5H10.25H12.5833H15.6667C16.219 2.5 16.6667 2.94772 16.6667 3.5V4.25C16.6667 4.80228 16.219 5.25 15.6667 5.25H13.75M10.25 5.25V6.5C10.25 7.05228 9.80228 7.5 9.25 7.5H9C6.79086 7.5 5 9.29086 5 11.5V19C5 20.1046 5.89543 21 7 21H17C18.1046 21 19 20.1046 19 19V11.5C19 9.29086 17.2091 7.5 15 7.5H14.75C14.1977 7.5 13.75 7.05228 13.75 6.5V5.25M10.25 5.25H13.75M8.5 10.875L15.5 17.625M15.5 10.875L8.5 17.625" stroke="#0065A8" stroke-width="2"/>
</svg>
